<?xml version="1.0" encoding="UTF-8"?>
<svg version="1.1" xmlns="http://www.w3.org/2000/svg" width="512" height="512">
<path d="M0 0 C0.65411267 -0.00779995 1.30822535 -0.01559991 1.98215961 -0.02363622 C4.16666361 -0.04352718 6.34941969 -0.02780582 8.53393555 -0.01205444 C10.10290542 -0.01883196 11.67186734 -0.02773585 13.24081421 -0.03860474 C17.49711505 -0.0613891 21.75280957 -0.05256557 26.00912094 -0.03670931 C30.46443052 -0.02404574 34.91968837 -0.03579169 39.375 -0.04364014 C46.85678422 -0.05273538 54.33832162 -0.04075213 61.82006836 -0.01693726 C70.46864127 0.01027388 79.11662482 0.00145963 87.76518345 -0.02606928 C95.19210382 -0.04876297 102.61884683 -0.0519592 110.04579067 -0.03887594 C114.48095293 -0.03108282 118.91583822 -0.0300359 123.35098267 -0.04655838 C127.52088619 -0.06100779 131.69003031 -0.05097354 135.85985184 -0.0220871 C137.38967249 -0.01547869 138.91955711 -0.01736988 140.44935226 -0.02840042 C142.5391987 -0.04207931 144.62661672 -0.02491849 146.71630859 0 C147.88510056 0.00188513 149.05389252 0.00377026 150.25810242 0.00571251 C154.34358559 0.83492744 155.83436378 2.37137229 158.3581543 5.63491821 C158.98736 7.89163208 158.98736 7.89163208 158.99307251 10.22671509 C159.00717163 11.11826294 159.02127075 12.00981079 159.03579712 12.92837524 C159.02061539 14.37639526 159.02061539 14.37639526 159.00512695 15.85366821 C159.01826935 17.39353394 159.01826935 17.39353394 159.03167725 18.96450806 C159.05366885 22.35507577 159.03911831 25.74433743 159.0222168 29.13491821 C159.02558497 31.49234263 159.0304376 33.84976536 159.03671265 36.20718384 C159.0440837 41.14680522 159.03337029 46.0859744 159.01000977 51.02554321 C158.98152267 57.35781854 158.99792527 63.6890343 159.02787209 70.02127075 C159.04593828 74.8889057 159.04018996 79.75628937 159.02723312 84.62393188 C159.02389728 86.95873134 159.02799241 89.29355359 159.03963089 91.62832642 C159.05232764 94.8915552 159.03297676 98.15306733 159.00512695 101.41616821 C159.01524811 102.38151489 159.02536926 103.34686157 159.03579712 104.34146118 C158.96928433 108.54734999 158.69850966 111.04746286 156.56242371 114.73435974 C151.63963829 117.65422706 147.06791277 117.32075549 141.44287109 117.26260376 C139.63225693 117.27351044 139.63225693 117.27351044 137.7850647 117.28463745 C135.1642097 117.29685388 132.54520987 117.30004689 129.92453575 117.2876339 C125.77573059 117.26805326 121.6274914 117.28331466 117.47871399 117.30308533 C110.91160378 117.33022321 104.34472479 117.3337295 97.77756959 117.32731229 C86.03054237 117.31637866 74.2835862 117.3410852 62.53662997 117.38105994 C58.41838869 117.39408454 54.30035963 117.39541726 50.18210828 117.38692701 C47.00860499 117.38242844 43.83512094 117.39014383 40.66162109 117.39541626 C39.52939621 117.38972122 38.39717133 117.38402618 37.2306366 117.37815857 C28.6881228 117.41002632 21.17181339 117.90525034 14.3581543 123.63491821 C9.86215099 129.53861584 9.29137267 135.70490244 9.04174805 142.90835571 C8.99985352 144.06206665 8.95795898 145.21577759 8.91479492 146.40444946 C8.87547852 147.59425415 8.83616211 148.78405884 8.7956543 150.00991821 C8.73087891 151.82942993 8.73087891 151.82942993 8.66479492 153.68569946 C8.55909917 156.66866854 8.45700109 159.65171563 8.3581543 162.63491821 C9.51754768 162.60493996 9.51754768 162.60493996 10.70036316 162.57435608 C18.03948463 162.39286848 25.37749557 162.25642884 32.71828747 162.16860867 C36.4910744 162.12193691 40.26198455 162.05880821 44.03369141 161.95596313 C47.68434434 161.85705938 51.33321096 161.80413587 54.9851017 161.78102303 C56.36739506 161.76458743 57.74960742 161.73249671 59.1311245 161.6833477 C70.75935596 161.28669628 76.67133338 164.40178362 85.3581543 171.63491821 C86.08974258 172.21095795 86.82133087 172.78699768 87.5750885 173.38049316 C89.23566585 174.69118308 90.83264793 176.05001258 92.4206543 177.44741821 C92.99662354 177.94966919 93.57259277 178.45192017 94.16601562 178.96939087 C104.74517351 188.29787528 114.04351294 198.23092016 122.3581543 209.63491821 C122.98802246 210.49826782 122.98802246 210.49826782 123.63061523 211.37905884 C137.33580201 230.44435379 146.93244866 251.53777106 153.1081543 274.13491821 C153.38828369 275.14546265 153.38828369 275.14546265 153.67407227 276.17642212 C157.58542751 291.39661938 158.91319278 306.65691891 158.7956543 322.32241821 C158.79109222 323.62378723 158.79109222 323.62378723 158.78643799 324.95144653 C158.62463188 356.30443591 151.05885915 385.10531975 136.7331543 412.94741821 C136.37310303 413.65922241 136.01305176 414.37102661 135.64208984 415.10440063 C133.45349757 419.22214115 131.40443032 422.09081417 127.3581543 424.63491821 C122.69698928 425.30079893 119.78065834 425.37463269 115.9206543 422.57241821 C112.81058198 419.00721336 112.51373497 417.32178585 112.3581543 412.63491821 C113.38814744 410.02032024 114.41734667 407.85736728 115.7956543 405.44741821 C123.71278687 390.59642967 129.50054556 375.00732739 133.3581543 358.63491821 C133.83768555 356.72452759 133.83768555 356.72452759 134.3269043 354.77554321 C139.01368888 333.75397416 138.73587533 307.47358721 133.3581543 286.63491821 C133.16479492 285.83731079 132.97143555 285.03970337 132.7722168 284.21792603 C124.19169605 249.29997353 105.57231043 217.21126104 77.96296883 193.84852409 C76.31314569 192.44648254 74.69538687 191.00502613 73.12600517 189.51349068 C64.52625239 182.11326016 56.46292345 182.48212354 45.69067383 182.56802368 C43.81851495 182.55388714 41.94637891 182.53638947 40.07427979 182.51580811 C35.01599024 182.4709976 29.95895744 182.47665651 24.9005456 182.49445105 C20.6661343 182.50470969 16.43195518 182.49005433 12.19756782 182.4755069 C2.20189718 182.44156466 -7.79316242 182.44858246 -17.78881836 182.48208618 C-28.07486725 182.51591915 -38.35921798 182.48426389 -48.6450814 182.41964042 C-57.50076188 182.36612597 -66.35591573 182.35172933 -75.21174157 182.36867058 C-80.49019644 182.37849463 -85.76763036 182.37428987 -91.04595566 182.33309555 C-96.01268749 182.29618483 -100.97699186 182.30852709 -105.94359589 182.35749435 C-107.75709723 182.3674496 -109.5707867 182.36068892 -111.3841362 182.33519745 C-124.31234275 182.16795433 -131.31401374 184.63148525 -140.6418457 193.63491821 C-141.90245348 194.72408568 -143.16651838 195.80931652 -144.4387207 196.88491821 C-145.42973526 197.79440272 -146.4143822 198.71088519 -147.3918457 199.63491821 C-148.19585815 200.38926147 -148.19585815 200.38926147 -149.01611328 201.15884399 C-173.52233942 224.41314158 -188.64085942 254.08589373 -196.6418457 286.63491821 C-196.82118652 287.32714478 -197.00052734 288.01937134 -197.18530273 288.73257446 C-206.39406148 325.53103046 -198.75858785 369.10805306 -180.62866211 401.84976196 C-179.64410874 403.63082437 -178.69449411 405.42750627 -177.74731445 407.22866821 C-157.75480829 444.49744669 -120.76564221 471.93204104 -80.74584961 484.1703186 C-37.3023927 496.83105137 7.72518011 492.49098094 47.8425293 471.43179321 C59.11600183 465.66979614 59.11600183 465.66979614 65.3581543 467.63491821 C68.31857542 470.21741324 69.95296183 471.81510642 70.8034668 475.63491821 C70.98955401 478.91005322 70.59953898 481.23020531 68.9206543 484.04507446 C65.33765074 487.66631129 61.30965202 489.71266662 56.7956543 492.00991821 C55.86253418 492.4896106 54.92941406 492.96930298 53.96801758 493.46353149 C42.03749736 499.46611861 29.72748016 503.86778538 16.8581543 507.38491821 C15.84760986 507.66504761 15.84760986 507.66504761 14.81665039 507.95083618 C0.34179407 511.67065033 -14.21037632 513.13877432 -29.12133789 513.02603149 C-31.64174453 513.00991886 -34.1605487 513.02601785 -36.6809082 513.04507446 C-51.34051787 513.06418541 -65.85241703 511.33723833 -80.0168457 507.44741821 C-80.78464355 507.23875122 -81.55244141 507.03008423 -82.34350586 506.81509399 C-123.70300928 495.13976369 -160.26885542 470.38179247 -185.6418457 435.63491821 C-186.05644043 435.06998657 -186.47103516 434.50505493 -186.89819336 433.92300415 C-207.60683806 405.31010863 -221.52401374 369.54359592 -221.88012695 333.94741821 C-221.89481773 332.72970734 -221.89481773 332.72970734 -221.9098053 331.48739624 C-222.45070955 275.00581742 -204.63085801 226.11596477 -164.7668457 185.44741821 C-159.11982628 179.82092322 -153.00970767 174.69075073 -146.53604126 170.03675842 C-144.62276071 168.65713957 -144.62276071 168.65713957 -142.85247803 167.0920105 C-135.92371572 161.61626116 -129.27881131 161.85015013 -120.76293945 162.04898071 C-119.34092513 162.06019338 -117.91888737 162.06872377 -116.49684143 162.07470703 C-112.78252379 162.09744391 -109.06964949 162.15622937 -105.355896 162.22293091 C-101.55492674 162.28468558 -97.7537206 162.31179216 -93.95239258 162.34194946 C-86.51489081 162.40599335 -79.07857169 162.50818115 -71.6418457 162.63491821 C-71.66541138 161.00248169 -71.66541138 161.00248169 -71.68945312 159.33706665 C-71.74433788 155.24437048 -71.77840553 151.15170584 -71.80664062 147.05874634 C-71.82159538 145.29762272 -71.84196667 143.53653547 -71.86816406 141.77554321 C-72.06058279 128.49487841 -71.29210281 116.69390539 -65.1418457 104.63491821 C-64.63234375 103.62763672 -64.63234375 103.62763672 -64.11254883 102.6000061 C-60.35678797 95.55628081 -55.35083949 90.14092555 -49.6418457 84.63491821 C-49.00891602 83.97105103 -48.37598633 83.30718384 -47.72387695 82.62319946 C-43.6700668 78.64097978 -39.01677315 75.9960643 -34.0168457 73.38491821 C-33.40236572 73.05524048 -32.78788574 72.72556274 -32.15478516 72.38589478 C-27.67478512 70.16774703 -23.25046654 69.03448912 -18.35522461 68.02261353 C-17.09723053 67.76039001 -15.83923645 67.4981665 -14.54312134 67.22799683 C-13.58570038 67.03228088 -12.62827942 66.83656494 -11.6418457 66.63491821 C-11.65294876 65.88180862 -11.66405182 65.12869904 -11.67549133 64.35276794 C-11.77578317 57.24651368 -11.85185561 50.14050558 -11.90090656 43.03374195 C-11.92697265 39.38022929 -11.96231347 35.72730261 -12.01904297 32.0741272 C-12.07347335 28.54682874 -12.10328873 25.02009294 -12.11623192 21.49240685 C-12.12993209 19.49535419 -12.16894864 17.49852715 -12.20832825 15.5018158 C-12.2087059 14.28092758 -12.20908356 13.06003937 -12.20947266 11.80215454 C-12.22057571 10.72959915 -12.23167877 9.65704376 -12.24311829 8.55198669 C-10.86995761 1.89011015 -6.29405248 0.01015159 0 0 Z M8.3581543 20.63491821 C4.06576748 67.30867892 4.06576748 67.30867892 17.47924805 87.22476196 C36.49626986 102.41020605 60.61799863 99.42670646 83.7487793 98.35153198 C91.00470288 98.04699064 98.26601822 97.93537422 105.52654266 97.79019928 C116.48132123 97.55014444 127.40159499 97.07085559 138.3581543 96.63491821 C138.3581543 71.55491821 138.3581543 46.47491821 138.3581543 20.63491821 C95.4581543 20.63491821 52.5581543 20.63491821 8.3581543 20.63491821 Z M-40.6418457 105.63491821 C-50.73078787 119.67069192 -51.82486913 133.49542912 -51.7043457 150.25991821 C-51.6837207 154.34366821 -51.6630957 158.42741821 -51.6418457 162.63491821 C-38.4418457 162.63491821 -25.2418457 162.63491821 -11.6418457 162.63491821 C-11.47188026 151.61209953 -11.47188026 151.61209953 -11.34399414 140.58877563 C-11.12190473 127.65121967 -8.93379923 117.25459624 0.3581543 107.63491821 C2.62089088 105.75517401 4.8645515 104.21250365 7.3581543 102.63491821 C5.74243491 98.68955692 3.04609347 95.88586948 0.1081543 92.88491821 C-0.35719727 92.37831665 -0.82254883 91.87171509 -1.30200195 91.34976196 C-3.72000594 88.87846863 -5.21371596 87.69560671 -8.6730957 87.20523071 C-21.14281662 89.01005874 -32.67199085 95.99895146 -40.6418457 105.63491821 Z " fill="#297E7C" transform="translate(287.641845703125,-0.634918212890625)"/>
<path d="M0 0 C3.125 1.625 3.125 1.625 5 5 C6.58499384 16.19491142 4.29354318 25.91378709 -2.4375 34.9375 C-4.98405462 38.09853648 -7.78051902 40.53154718 -11 43 C-10.08057617 43.51216064 -10.08057617 43.51216064 -9.14257812 44.03466797 C8.53700016 53.90257021 25.66344265 64.03382498 42 76 C43.10501483 76.80270858 44.21047574 77.60480347 45.31640625 78.40625 C47.88080391 80.26650271 50.44193896 82.13104928 53 84 C56.76809948 82.43507719 59.14055675 80.09509513 61.99633789 77.21484375 C62.47978165 76.73008575 62.9632254 76.24532776 63.46131897 75.74588013 C65.05308523 74.14763994 66.63775515 72.54254569 68.22265625 70.9375 C69.33025393 69.82362917 70.43837016 68.71027376 71.54698181 67.59741211 C74.46155894 64.66954491 77.37051503 61.7361616 80.27789307 58.80114746 C84.93368405 54.10220455 89.59621763 49.40997591 94.26202202 44.72097778 C95.89023113 43.08255017 97.51498156 41.44074949 99.13941956 39.79858398 C100.13718243 38.79399269 101.13505553 37.78951087 102.13305664 36.78515625 C103.4373336 35.46849976 103.4373336 35.46849976 104.76795959 34.12524414 C108.1409251 30.91366465 110.27042479 29.68146319 114.875 29.5625 C116.13957031 29.50255859 116.13957031 29.50255859 117.4296875 29.44140625 C120.28084915 30.06103561 121.92519967 31.02506783 123.93418503 33.14524841 C126.37131444 37.3863876 125.68735202 42.67519011 125.64697266 47.421875 C125.66011505 49.31286926 125.66011505 49.31286926 125.67352295 51.24206543 C125.69628144 54.69265365 125.68749512 58.14249287 125.67162752 61.59309387 C125.65895022 65.20759061 125.67071369 68.82202412 125.67855835 72.43652344 C125.68764966 78.50597626 125.67568091 84.57512467 125.65185547 90.64453125 C125.62464477 97.65720388 125.63345933 104.66914964 125.6609875 111.68180466 C125.68369264 117.70747465 125.68687191 123.73292608 125.67379415 129.75862503 C125.6660072 133.35543987 125.66493673 136.95191328 125.68147659 140.54870605 C125.69863025 144.55894877 125.67484339 148.56794261 125.64697266 152.578125 C125.65709381 153.7678894 125.66721497 154.95765381 125.67764282 156.18347168 C125.56221179 165.13597256 125.56221179 165.13597256 122.60482788 168.22607422 C119.08627518 170.62225993 116.98417372 171.00160627 112.79953003 170.68467712 C109.36697464 169.84518188 107.89974002 168.53653565 105.34423828 166.11547852 C104.04042206 164.88862839 104.04042206 164.88862839 102.71026611 163.63699341 C101.8158783 162.76678558 100.92149048 161.89657776 100 161 C98.70313263 159.73879837 98.70313263 159.73879837 97.38006592 158.45211792 C94.62915951 155.74432628 91.90137495 153.01440655 89.1796875 150.27734375 C88.18529004 149.28107487 87.19066687 148.28503123 86.1958313 147.28919983 C83.61266887 144.70226915 81.03252681 142.11234742 78.45306396 139.52172852 C75.806512 136.86483806 73.15702908 134.2108737 70.5078125 131.55664062 C65.33571533 126.3739069 60.16681458 121.18800068 55 116 C50.38011059 117.71706626 46.90532822 120.22309811 43.0625 123.25 C26.14676522 136.21325693 7.63183666 146.73158129 -11 157 C-10.46165527 157.44730469 -9.92331055 157.89460937 -9.36865234 158.35546875 C-1.0372772 165.42931341 4.3411053 173.21962695 5.28515625 184.3671875 C5.6675063 193.79848866 5.6675063 193.79848866 3.125 198.375 C-1.34402152 200.69889119 -5.07170243 200.94993545 -10 200 C-13.68175594 197.88494871 -14.71549769 196.04588468 -15.8203125 191.984375 C-16.31728404 189.69307463 -16.80025258 187.39869454 -17.26953125 185.1015625 C-18.52980158 179.75046814 -20.78042306 176.56164064 -25.375 173.6875 C-31.56271814 170.80701052 -37.51942195 170.86758199 -44.2109375 170.859375 C-46.03256437 170.84102556 -47.85417926 170.82145333 -49.67578125 170.80078125 C-52.51013252 170.77205307 -55.34371723 170.75000545 -58.17822266 170.74951172 C-75.29542787 170.72845735 -89.93794054 168.69255639 -104 158 C-104.76570313 157.42765625 -105.53140625 156.8553125 -106.3203125 156.265625 C-121.49420198 143.89388236 -132.43613616 122.32776447 -135.4453125 103.1640625 C-136.60134264 84.81836673 -124.94538875 63.78048022 -113.22998047 50.33666992 C-102.70613302 38.89714905 -88.0158913 30.46729298 -72.30322266 29.69946289 C-66.80749637 29.52077457 -61.31071867 29.47373131 -55.8125 29.4375 C-52.97271936 29.41357537 -50.13323255 29.3852886 -47.29362488 29.34571838 C-45.53844964 29.32168815 -43.78312033 29.30656539 -42.02778625 29.30210876 C-34.2010064 29.20303808 -27.19413757 28.20870659 -21 23 C-17.88033431 18.75378837 -16.82451117 15.5692596 -16.0625 10.375 C-15.47068171 6.75943787 -14.98962261 4.98346104 -13 1.8125 C-8.63996648 -0.82168692 -4.95911566 -0.94304495 0 0 Z M-67 51 C-66.54109375 52.01835937 -66.0821875 53.03671875 -65.609375 54.0859375 C-54.06172089 80.37407298 -51.39526747 109.65695761 -61.82421875 136.87109375 C-63.45194088 140.96004756 -65.19196942 144.9877973 -67 149 C-49.63186107 150.56001248 -33.26414785 143.49985956 -18 136 C-17.2584668 135.64341309 -16.51693359 135.28682617 -15.75292969 134.91943359 C3.05208093 125.80936041 20.61390352 113.93639196 37 101 C35.59058298 97.6193161 34.05432305 96.01346531 31.0625 93.93359375 C30.25965576 93.37140137 29.45681152 92.80920898 28.62963867 92.22998047 C27.76185791 91.63846191 26.89407715 91.04694336 26 90.4375 C25.09934814 89.81762207 24.19869629 89.19774414 23.27075195 88.55908203 C-2.73991663 70.80783343 -34.23362907 49.40596033 -67 51 Z M-94.265625 61.2109375 C-103.20961648 70.43694673 -113.11977188 85.90053807 -114.16015625 99.01953125 C-113.51381004 112.95475557 -104.04569682 129.0329897 -94.40234375 138.58203125 C-91.1574428 141.41377425 -91.1574428 141.41377425 -87 142 C-76.54556991 121.26496645 -71.44987246 99.40081225 -78.64453125 76.4921875 C-81.10051648 70.1646636 -83.94169064 64.05648342 -87 58 C-90.50194775 58 -91.70019389 58.93760993 -94.265625 61.2109375 Z M102.62693787 67.25280762 C102.04291702 67.83904907 101.45889618 68.42529053 100.85717773 69.02929688 C100.19656845 69.68998169 99.53595917 70.3506665 98.85533142 71.03137207 C98.13865799 71.75320679 97.42198456 72.4750415 96.68359375 73.21875 C95.95253922 73.95121948 95.22148468 74.68368896 94.46827698 75.43835449 C92.1223397 77.78991174 89.77989379 80.14491355 87.4375 82.5 C85.85244145 84.09007097 84.26715799 85.67991778 82.68164062 87.26953125 C78.78514209 91.17708527 74.89150833 95.08747658 71 99 C72.32814748 101.94504774 73.7735572 104.02246655 76.05688477 106.29980469 C76.67414932 106.92014587 77.29141388 107.54048706 77.92738342 108.17962646 C78.92432472 109.16578949 78.92432472 109.16578949 79.94140625 110.171875 C80.96571999 111.1955014 80.96571999 111.1955014 82.01072693 112.23980713 C83.45164432 113.67770822 84.89498661 115.11318287 86.34057617 116.54638672 C88.56293779 118.75043418 90.7771356 120.96243693 92.99023438 123.17578125 C94.39015278 124.57078654 95.79052763 125.96533397 97.19140625 127.359375 C97.85805801 128.02491394 98.52470978 128.69045288 99.21156311 129.37615967 C99.82567551 129.98389221 100.4397879 130.59162476 101.07250977 131.21777344 C101.61496841 131.75642029 102.15742706 132.29506714 102.71632385 132.85003662 C103.83689931 134.11120824 103.83689931 134.11120824 105 134 C105 111.56 105 89.12 105 66 C103.81333315 65.88766373 103.81333315 65.88766373 102.62693787 67.25280762 Z " fill="#297E7C" transform="translate(261,222)"/>
<path d="M0 0 C3.125 1.875 3.125 1.875 5 5 C5.98876625 10.02622846 5.7769173 13.70513784 3.125 18.125 C-1.29486216 20.7769173 -4.97377154 20.98876625 -10 20 C-13.125 18.125 -13.125 18.125 -15 15 C-15.98876625 9.97377154 -15.7769173 6.29486216 -13.125 1.875 C-8.70513784 -0.7769173 -5.02622846 -0.98876625 0 0 Z " fill="#297E7C" transform="translate(388,439)"/>
</svg>
